<svg xmlns="http://www.w3.org/2000/svg" version="1.1" xmlns:xlink="http://www.w3.org/1999/xlink" xmlns:svgjs="http://svgjs.dev/svgjs" width="1000" height="1125" viewBox="0 0 1000 1125"><g transform="matrix(1,0,0,1,1.7053025658242404e-13,0)"><svg viewBox="0 0 320 360" data-background-color="#111111" preserveAspectRatio="xMidYMid meet" height="1125" width="1000" xmlns="http://www.w3.org/2000/svg" xmlns:xlink="http://www.w3.org/1999/xlink"><g id="tight-bounds" transform="matrix(1,0,0,1,0,0)"><svg viewBox="0 0 320 360" height="360" width="320"><g><svg></svg></g><g><svg viewBox="0 0 320 360" height="360" width="320"><g><path xmlns="http://www.w3.org/2000/svg" d="M20.961 227.22l3.726 4.658-1.863-6.056c-0.466-2.795-3.726 0.466-1.863 1.398M25.153 224.425c1.397 2.329 2.795 4.658 2.795 6.987 0 3.261 2.795 4.658 5.123 5.589-3.261-3.726-5.124-13.974-7.918-12.576M204.017 26.929c7.918 0 15.371-0.932 23.756 0.931 20.495 5.124 37.729 15.371 49.374 29.811l32.606 52.169c1.397 13.042 4.192 27.482 3.726 43.319 3.261 0 2.795-4.658 6.521-5.59-3.726 9.316-5.59 20.961-6.521 34.469-2.329-7.453 0-18.632 0.466-24.687-3.261 5.124-5.124 1.397-5.124-0.932 0.466-3.726-1.397-3.261-2.795-4.658-5.124-4.658-8.384-9.782-12.11-17.7 2.329-6.055 2.795-14.905-4.658-19.563-2.329-1.397-5.124-3.726-6.521-7.453-1.863-5.124-5.124-11.179-4.193-19.097 0.466-2.329-6.987 5.124-11.179 1.863-18.166-12.576-36.332-27.016-58.224-39.127-11.645 0-20.029-4.192-24.221-9.316-3.726-4.658-0.932-10.713 4.658-11.179 3.261 0 6.987-0.932 9.782 0.932 0.466-1.863 2.329-4.192 4.657-4.192M157.904 16.215l0.932 0.466c4.658 0.932 6.987 7.453 12.11 5.124 0 3.261 0.466 6.521-0.466 8.85-1.397 3.726-5.59 3.726-8.85 3.726-31.208-1.863-49.374 11.179-68.471 22.358-5.124 3.261-10.713 5.59-14.906 9.782-20.029 18.632-41.921 35.866-47.045 70.335l-4.192 38.195c-0.466 4.192-5.124 8.384-4.192 13.508l3.26 22.824c-3.261-3.261-5.124 0.932-4.192 2.795 0.466 1.397 2.329 6.055 5.124 1.863 3.726 6.987 7.453 20.495 12.576 26.55 15.837 18.632 36.332 35.4 53.101 52.169 4.192-0.932 7.453-0.932 8.384-3.727 1.397 2.795-1.397 5.59-3.726 6.056 7.453 4.658 15.837 8.85 27.016 9.781 14.44 0.932 27.948 3.261 40.524 6.522 6.521-1.863 13.042-2.795 20.029-3.261 2.329 0 3.726-3.726 6.521-4.658l0.466-4.658c2.795 4.192 2.329-1.397 0.466-4.192 3.261 2.795 4.192 5.124 5.589 6.987 0-1.397 3.726-6.521 3.727-0.466l0.931-6.055c1.397-0.932 1.863 5.124 3.261 0.931 1.397-4.192 4.192-0.932 6.987-2.329-0.932 1.863-0.466 5.59 2.794 3.261l3.727-3.261c2.329 5.59 6.055 3.261 7.918 2.329 20.495-13.042 40.99-28.413 60.553-43.784l-0.466 6.055 2.329-7.453c2.329 2.329 4.192 0.466 5.124-0.931 2.795-4.658 6.521-9.316 12.577-13.508-7.453 20.029-16.303 35.866-27.482 48.908l-4.658 5.59c0 3.261-0.932 7.453-4.658 7.918-1.863 0.466-5.59-0.932-8.384 1.863-1.397 1.863 3.261 5.59-0.466 2.795-3.261-2.329-6.521 0-10.248 0.932-2.795 0.932 1.863 3.726 2.795 5.589 0.932 1.863 1.863 3.726 1.398 6.056l-5.124-5.59c-6.055 3.261-9.782 9.316-14.906 13.974-2.329 1.863-1.397 5.124-1.397 7.918-3.261 0-6.987-0.932-8.85 0.932-1.397 1.863-0.932 4.658-0.932 7.453-4.658-0.466-5.124-7.453-9.315-6.056-4.192 0.932-8.85 1.397-12.577 3.727 2.795 5.59-4.658 2.329-3.726 3.26-6.987-4.192-13.042-7.453-20.495-4.658-15.837-5.124-35.4-2.795-49.84-0.931 0-2.329 0.466-4.658-0.466-5.124-0.932 2.329-3.726 1.397-3.26 1.397-8.85-6.055-17.7-9.782-27.016-14.905-8.384 0.932-16.303-3.261-18.632-5.59-6.521-6.055-13.974-2.795-20.029-4.192-13.042-3.261-17.7-16.769-19.098-26.084-0.932-4.658-4.658-6.521-6.055-6.056-6.055-19.563-15.371-37.263-22.824-55.429-1.863-4.658-1.397-9.316-1.397-14.44 2.329 0.932 4.658 0.466 4.192-2.794-2.329-15.371-7.918-27.016-13.974-38.195 3.261-15.837 3.726-34.469 11.179-48.443 6.521-12.576 18.632-19.098 27.016-29.811 2.795-3.726 2.795-8.85 5.59-12.11 9.316-9.316 18.632-19.098 28.879-27.482 4.658-3.726 10.247 0 17.234-1.397 2.329-8.384 11.645-15.837 20.495-13.508 3.726 0.932 11.179-8.85 13.508-9.782 3.726-1.397 1.863 3.726 1.863 6.987 8.85-6.987 20.961-10.713 32.14-14.906" fill="#20daaf" fill-rule="nonzero" stroke="none" stroke-width="1" stroke-linecap="butt" stroke-linejoin="miter" stroke-miterlimit="10" stroke-dasharray="" stroke-dashoffset="0" font-family="none" font-weight="none" font-size="none" text-anchor="none" style="mix-blend-mode: normal" data-fill-palette-color="tertiary"></path></g><g transform="matrix(1,0,0,1,64,123.30597110398472)"><svg viewBox="0 0 192 113.38805779203055" height="113.38805779203055" width="192"><g><svg viewBox="0 0 192 113.38805779203055" height="113.38805779203055" width="192"><g><svg viewBox="0 0 192 113.38805779203055" height="113.38805779203055" width="192"><g><svg viewBox="0 0 192 113.38805779203055" height="113.38805779203055" width="192"><g id="textblocktransform"><svg viewBox="0 0 192 113.38805779203055" height="113.38805779203055" width="192" id="textblock"><g><svg viewBox="0 0 192 113.38805779203055" height="113.38805779203055" width="192"><g transform="matrix(1,0,0,1,0,0)"><svg width="192" viewBox="1.600000023841858 -36.483333587646484 62.45454406738281 36.88333511352539" height="113.38805779203055" data-palette-color="#20daaf"><path d="M13.4 0.4L13.4 0.4Q7.5 0.4 4.55-2.1 1.6-4.6 1.6-8.65L1.6-8.65Q1.6-11.6 2.88-13.05 4.15-14.5 5.9-14.5L5.9-14.5Q7.05-14.5 7.9-13.83 8.75-13.15 8.75-11.9L8.75-11.9Q8.75-11.8 8.6-10L8.6-10 8.5-9Q8.5-7.85 9.93-7.05 11.35-6.25 14.1-6.25L14.1-6.25Q15.85-6.25 17.48-6.85 19.1-7.45 20.1-8.45 21.1-9.45 21.1-10.55L21.1-10.55Q21.1-11.45 20.38-12.25 19.65-13.05 17.85-13.8L17.85-13.8 15.9-14.55Q15.05-14.85 14.05-15.23 13.05-15.6 11.95-16.05L11.95-16.05Q4.45-19.1 4.45-25L4.45-25Q4.45-27.95 6.4-30.55 8.35-33.15 11.55-34.7 14.75-36.25 18.35-36.25L18.35-36.25Q23.65-36.25 27-33.7 30.35-31.15 30.35-26.55L30.35-26.55Q30.35-24.1 29.3-22.78 28.25-21.45 26.5-21.45L26.5-21.45Q24.95-21.45 24.03-22.25 23.1-23.05 23.1-24.4L23.1-24.4Q23.1-25.7 23.05-26.23 23-26.75 22.6-27.25L22.6-27.25Q21.9-28.15 20.38-28.83 18.85-29.5 16.8-29.55L16.8-29.55Q14.35-29.55 12.95-28.55 11.55-27.55 11.55-26.2L11.55-26.2Q11.55-24.9 12.63-24.15 13.7-23.4 16.7-22.15L16.7-22.15Q17.5-21.85 17.9-21.65L17.9-21.65Q20.8-20.55 22.8-19.55L22.8-19.55Q25.65-18.15 26.98-16.35 28.3-14.55 28.3-11.75L28.3-11.75Q28.3-8.35 26.08-5.58 23.85-2.8 20.38-1.2 16.9 0.4 13.4 0.4L13.4 0.4ZM39.4-3.15L39.4-3.15Q39.1-1.7 37.85-0.68 36.6 0.35 35.15 0.35 33.7 0.35 32.9-0.68 32.1-1.7 32.4-3.15 32.7-4.6 35.37-17.7 38.05-30.8 38.55-32.25L38.55-32.25Q38.9-33.7 40.15-34.68 41.4-35.65 42.85-35.65L42.85-35.65Q43.1-35.65 43.35-35.6L43.35-35.6Q43.45-35.6 43.6-35.65L43.6-35.65Q49.9-36.65 53.3-36.45L53.3-36.45Q60.05-36 62.6-31.7L62.6-31.7Q64.6-28.4 63.85-24.65 63.1-20.9 60.2-18.35L60.2-18.35Q57.75-16.2 54.55-15 51.35-13.8 48.3-13.65L48.3-13.65Q47.25-13.6 46.12-13.65 45-13.7 43.4-13.85 41.8-14 41.6-14.05L41.6-14.05Q40.1-6.5 39.4-3.15L39.4-3.15ZM49.45-20.65L49.45-20.65Q51.3-20.7 53.1-21.38 54.9-22.05 55.9-23L55.9-23Q56.4-23.45 56.62-23.83 56.85-24.2 56.85-25.25 56.85-26.3 56.3-27.3L56.3-27.3Q55.1-29.25 51.4-29.45L51.4-29.45Q48.9-29.6 44.8-29L44.8-29Q44.05-25.65 43.05-21.05L43.05-21.05 43.1-21.05 45.4-20.8Q46.65-20.7 47.6-20.65 48.55-20.6 49.45-20.65L49.45-20.65Z" opacity="1" transform="matrix(1,0,0,1,0,0)" fill="#20daaf" class="wordmark-text-0" data-fill-palette-color="primary" id="text-0"></path></svg></g></svg></g></svg></g></svg></g><g></g></svg></g></svg></g></svg></g></svg></g><defs></defs></svg><rect width="320" height="360" fill="none" stroke="none" visibility="hidden"></rect></g></svg></g></svg>