<?xml version="1.0" encoding="UTF-8"?>
<svg xmlns="http://www.w3.org/2000/svg" xmlns:xlink="http://www.w3.org/1999/xlink" width="42px" height="42px" viewBox="0 0 42 42" version="1.1">
<defs>
<clipPath id="clip1">
  <path d="M 6.300781 5 L 35.699219 5 L 35.699219 37 L 6.300781 37 Z M 6.300781 5 "/>
</clipPath>
<clipPath id="clip2">
  <path d="M 12.179688 15.792969 L 29.820312 15.792969 L 29.820312 26.210938 L 12.179688 26.210938 Z M 12.179688 15.792969 "/>
</clipPath>
</defs>
<g id="surface1">
<rect x="0" y="0" width="42" height="42" style="fill:rgb(6.666667%,6.666667%,6.666667%);fill-opacity:1;stroke:none;"/>
<g clip-path="url(#clip1)" clip-rule="nonzero">
<path style=" stroke:none;fill-rule:nonzero;fill:rgb(12.54902%,85.490196%,68.627451%);fill-opacity:1;" d="M 8.226562 25.339844 L 8.566406 25.765625 L 8.398438 25.210938 C 8.355469 24.953125 8.054688 25.253906 8.226562 25.339844 M 8.609375 25.082031 C 8.738281 25.296875 8.867188 25.507812 8.867188 25.722656 C 8.867188 26.023438 9.125 26.152344 9.339844 26.238281 C 9.039062 25.894531 8.867188 24.953125 8.609375 25.082031 M 25.042969 6.9375 C 25.773438 6.9375 26.457031 6.851562 27.226562 7.023438 C 29.109375 7.492188 30.691406 8.433594 31.761719 9.761719 L 34.757812 14.554688 C 34.886719 15.753906 35.144531 17.078125 35.101562 18.535156 C 35.402344 18.535156 35.359375 18.105469 35.699219 18.019531 C 35.359375 18.875 35.1875 19.945312 35.101562 21.1875 C 34.886719 20.503906 35.101562 19.476562 35.144531 18.917969 C 34.84375 19.390625 34.671875 19.046875 34.671875 18.832031 C 34.714844 18.492188 34.542969 18.535156 34.417969 18.40625 C 33.945312 17.976562 33.644531 17.507812 33.304688 16.78125 C 33.515625 16.222656 33.558594 15.410156 32.875 14.980469 C 32.660156 14.855469 32.40625 14.640625 32.277344 14.296875 C 32.105469 13.828125 31.804688 13.269531 31.890625 12.542969 C 31.933594 12.328125 31.25 13.011719 30.863281 12.714844 C 29.195312 11.558594 27.527344 10.230469 25.515625 9.117188 C 24.445312 9.117188 23.675781 8.734375 23.289062 8.261719 C 22.945312 7.835938 23.203125 7.277344 23.71875 7.234375 C 24.015625 7.234375 24.359375 7.152344 24.617188 7.320312 C 24.660156 7.152344 24.832031 6.9375 25.042969 6.9375 M 20.808594 5.953125 L 20.894531 5.996094 C 21.320312 6.082031 21.535156 6.679688 22.003906 6.464844 C 22.003906 6.765625 22.046875 7.066406 21.960938 7.277344 C 21.835938 7.621094 21.449219 7.621094 21.148438 7.621094 C 18.28125 7.449219 16.613281 8.648438 14.859375 9.675781 C 14.386719 9.976562 13.875 10.1875 13.488281 10.574219 C 11.648438 12.285156 9.636719 13.871094 9.167969 17.035156 L 8.78125 20.546875 C 8.738281 20.929688 8.3125 21.316406 8.398438 21.785156 L 8.695312 23.882812 C 8.398438 23.582031 8.226562 23.96875 8.3125 24.140625 C 8.355469 24.269531 8.523438 24.695312 8.78125 24.3125 C 9.125 24.953125 9.46875 26.195312 9.9375 26.75 C 11.390625 28.460938 13.277344 30.003906 14.816406 31.542969 C 15.203125 31.457031 15.5 31.457031 15.585938 31.199219 C 15.714844 31.457031 15.457031 31.714844 15.242188 31.757812 C 15.929688 32.183594 16.699219 32.570312 17.726562 32.65625 C 19.054688 32.742188 20.292969 32.957031 21.449219 33.253906 C 22.046875 33.085938 22.648438 33 23.289062 32.957031 C 23.503906 32.957031 23.632812 32.613281 23.886719 32.527344 L 23.929688 32.101562 C 24.1875 32.484375 24.144531 31.972656 23.972656 31.714844 C 24.273438 31.972656 24.359375 32.183594 24.488281 32.355469 C 24.488281 32.226562 24.832031 31.757812 24.832031 32.3125 L 24.914062 31.757812 C 25.042969 31.671875 25.085938 32.226562 25.214844 31.84375 C 25.34375 31.457031 25.601562 31.757812 25.855469 31.628906 C 25.773438 31.800781 25.8125 32.144531 26.113281 31.929688 L 26.457031 31.628906 C 26.671875 32.144531 27.011719 31.929688 27.183594 31.84375 C 29.066406 30.644531 30.949219 29.234375 32.746094 27.820312 L 32.703125 28.375 L 32.917969 27.691406 C 33.132812 27.90625 33.304688 27.734375 33.390625 27.605469 C 33.644531 27.179688 33.988281 26.75 34.542969 26.367188 C 33.859375 28.207031 33.046875 29.660156 32.019531 30.859375 L 31.589844 31.371094 C 31.589844 31.671875 31.507812 32.058594 31.164062 32.101562 C 30.992188 32.144531 30.648438 32.015625 30.394531 32.269531 C 30.265625 32.441406 30.691406 32.785156 30.351562 32.527344 C 30.050781 32.3125 29.75 32.527344 29.410156 32.613281 C 29.152344 32.699219 29.582031 32.957031 29.664062 33.125 C 29.75 33.296875 29.835938 33.46875 29.792969 33.683594 L 29.324219 33.167969 C 28.765625 33.46875 28.425781 34.027344 27.953125 34.453125 C 27.738281 34.625 27.824219 34.925781 27.824219 35.179688 C 27.527344 35.179688 27.183594 35.09375 27.011719 35.265625 C 26.882812 35.4375 26.925781 35.695312 26.925781 35.953125 C 26.5 35.910156 26.457031 35.265625 26.070312 35.394531 C 25.6875 35.480469 25.257812 35.523438 24.914062 35.738281 C 25.171875 36.25 24.488281 35.953125 24.574219 36.035156 C 23.929688 35.652344 23.375 35.351562 22.691406 35.609375 C 21.234375 35.136719 19.4375 35.351562 18.113281 35.523438 C 18.113281 35.308594 18.152344 35.09375 18.070312 35.054688 C 17.984375 35.265625 17.726562 35.179688 17.769531 35.179688 C 16.957031 34.625 16.144531 34.28125 15.285156 33.8125 C 14.515625 33.898438 13.789062 33.511719 13.574219 33.296875 C 12.976562 32.742188 12.292969 33.042969 11.734375 32.914062 C 10.535156 32.613281 10.109375 31.371094 9.980469 30.515625 C 9.894531 30.089844 9.550781 29.917969 9.425781 29.960938 C 8.867188 28.164062 8.011719 26.535156 7.328125 24.867188 C 7.15625 24.441406 7.199219 24.011719 7.199219 23.539062 C 7.414062 23.625 7.625 23.582031 7.582031 23.285156 C 7.371094 21.871094 6.855469 20.800781 6.300781 19.773438 C 6.597656 18.320312 6.640625 16.609375 7.328125 15.324219 C 7.925781 14.167969 9.039062 13.570312 9.808594 12.585938 C 10.066406 12.242188 10.066406 11.773438 10.324219 11.472656 C 11.179688 10.617188 12.035156 9.71875 12.976562 8.949219 C 13.402344 8.605469 13.917969 8.949219 14.558594 8.820312 C 14.773438 8.050781 15.628906 7.363281 16.441406 7.578125 C 16.785156 7.664062 17.46875 6.765625 17.683594 6.679688 C 18.027344 6.550781 17.855469 7.023438 17.855469 7.320312 C 18.667969 6.679688 19.78125 6.335938 20.808594 5.953125 "/>
</g>
<g clip-path="url(#clip2)" clip-rule="nonzero">
<path style=" stroke:none;fill-rule:nonzero;fill:rgb(12.54902%,85.490196%,68.627451%);fill-opacity:1;" d="M 15.511719 26.207031 C 14.402344 26.207031 13.570312 25.972656 13.011719 25.503906 C 12.457031 25.03125 12.179688 24.414062 12.179688 23.652344 C 12.179688 23.097656 12.300781 22.683594 12.542969 22.410156 C 12.78125 22.136719 13.066406 22 13.394531 22 C 13.609375 22 13.800781 22.0625 13.960938 22.191406 C 14.121094 22.316406 14.199219 22.5 14.199219 22.734375 C 14.199219 22.753906 14.183594 22.933594 14.15625 23.269531 L 14.128906 23.554688 C 14.128906 23.769531 14.261719 23.953125 14.53125 24.105469 C 14.800781 24.253906 15.191406 24.332031 15.710938 24.332031 C 16.039062 24.332031 16.359375 24.273438 16.664062 24.160156 C 16.96875 24.046875 17.21875 23.898438 17.40625 23.710938 C 17.59375 23.519531 17.6875 23.324219 17.6875 23.117188 C 17.6875 22.945312 17.621094 22.785156 17.484375 22.636719 C 17.347656 22.484375 17.109375 22.339844 16.769531 22.199219 L 16.21875 21.984375 C 16.058594 21.929688 15.882812 21.867188 15.695312 21.792969 C 15.507812 21.722656 15.308594 21.648438 15.101562 21.5625 C 13.691406 20.988281 12.984375 20.144531 12.984375 19.035156 C 12.984375 18.480469 13.167969 17.957031 13.535156 17.46875 C 13.902344 16.976562 14.386719 16.585938 14.992188 16.296875 C 15.59375 16.003906 16.234375 15.855469 16.910156 15.855469 C 17.910156 15.855469 18.722656 16.097656 19.355469 16.578125 C 19.984375 17.058594 20.300781 17.730469 20.300781 18.597656 C 20.300781 19.058594 20.203125 19.414062 20.003906 19.660156 C 19.804688 19.914062 19.542969 20.039062 19.214844 20.039062 C 18.921875 20.039062 18.6875 19.960938 18.515625 19.8125 C 18.339844 19.660156 18.253906 19.457031 18.253906 19.203125 C 18.253906 18.960938 18.246094 18.785156 18.238281 18.6875 C 18.230469 18.589844 18.1875 18.492188 18.113281 18.398438 C 17.980469 18.230469 17.769531 18.082031 17.484375 17.953125 C 17.195312 17.828125 16.859375 17.757812 16.472656 17.75 C 16.011719 17.75 15.648438 17.84375 15.386719 18.03125 C 15.121094 18.21875 14.992188 18.441406 14.992188 18.695312 C 14.992188 18.941406 15.09375 19.132812 15.296875 19.273438 C 15.496094 19.414062 15.878906 19.605469 16.445312 19.839844 C 16.59375 19.894531 16.707031 19.941406 16.785156 19.980469 C 17.328125 20.1875 17.792969 20.386719 18.167969 20.574219 C 18.703125 20.835938 19.097656 21.140625 19.347656 21.476562 C 19.597656 21.816406 19.722656 22.25 19.722656 22.777344 C 19.722656 23.417969 19.511719 24 19.09375 24.519531 C 18.675781 25.042969 18.136719 25.457031 17.484375 25.757812 C 16.828125 26.058594 16.171875 26.207031 15.511719 26.207031 Z M 22.855469 25.207031 C 22.800781 25.480469 22.652344 25.710938 22.417969 25.902344 C 22.183594 26.097656 21.929688 26.195312 21.65625 26.195312 C 21.382812 26.195312 21.171875 26.097656 21.019531 25.902344 C 20.871094 25.710938 20.824219 25.480469 20.878906 25.207031 C 20.9375 24.933594 21.214844 23.5625 21.71875 21.097656 C 22.222656 18.628906 22.523438 17.261719 22.617188 16.988281 C 22.683594 16.714844 22.832031 16.484375 23.066406 16.300781 C 23.304688 16.117188 23.558594 16.027344 23.832031 16.027344 C 23.878906 16.027344 23.925781 16.03125 23.972656 16.039062 C 23.992188 16.039062 24.015625 16.035156 24.042969 16.027344 C 25.230469 15.839844 26.140625 15.761719 26.78125 15.800781 C 28.054688 15.886719 28.929688 16.332031 29.410156 17.140625 C 29.785156 17.761719 29.902344 18.425781 29.761719 19.132812 C 29.621094 19.839844 29.277344 20.433594 28.730469 20.914062 C 28.269531 21.316406 27.738281 21.632812 27.136719 21.859375 C 26.53125 22.085938 25.945312 22.210938 25.371094 22.242188 C 25.171875 22.25 24.96875 22.25 24.753906 22.242188 C 24.542969 22.230469 24.289062 22.210938 23.984375 22.183594 C 23.683594 22.15625 23.515625 22.136719 23.476562 22.128906 C 23.195312 23.550781 22.988281 24.574219 22.855469 25.207031 Z M 25.695312 20.261719 C 26.042969 20.253906 26.386719 20.183594 26.726562 20.058594 C 27.066406 19.929688 27.328125 19.777344 27.515625 19.597656 C 27.609375 19.515625 27.679688 19.4375 27.71875 19.363281 C 27.761719 19.296875 27.785156 19.160156 27.785156 18.964844 C 27.785156 18.765625 27.734375 18.574219 27.628906 18.386719 C 27.402344 18.019531 26.941406 17.816406 26.246094 17.777344 C 25.773438 17.75 25.152344 17.792969 24.382812 17.90625 C 24.242188 18.535156 24.074219 19.285156 23.886719 20.148438 L 23.902344 20.148438 L 24.550781 20.222656 C 24.785156 20.238281 24.992188 20.253906 25.171875 20.261719 C 25.351562 20.273438 25.527344 20.273438 25.695312 20.261719 Z M 25.695312 20.261719 "/>
</g>
</g>
</svg>
